<svg xmlns="http://www.w3.org/2000/svg" xmlns:xlink="http://www.w3.org/1999/xlink" width="1030.987" height="363.616" viewBox="0 0 1030.987 363.616">
  <defs>
    <filter id="Union_3">
      <feOffset input="SourceAlpha"/>
      <feGaussianBlur stdDeviation="3" result="blur"/>
      <feFlood flood-opacity="0.161" result="color"/>
      <feComposite operator="out" in="SourceGraphic" in2="blur"/>
      <feComposite operator="in" in="color"/>
      <feComposite operator="in" in2="SourceGraphic"/>
    </filter>
  </defs>
  <g id="Group_1150" data-name="Group 1150" transform="translate(-33.534 22.386)">
    <text id="A" transform="translate(103.932 247.976) rotate(-12.53)" fill="#fff" stroke="#231f20" stroke-linejoin="round" stroke-width="25" font-size="199" font-family="Duckie"><tspan x="0" y="0">A</tspan></text>
    <text id="f" transform="translate(272.737 211.43) rotate(-8.41)" fill="#fff" stroke="#231f20" stroke-linejoin="round" stroke-width="25" font-size="198" font-family="Duckie"><tspan x="0" y="0">f</tspan></text>
    <text id="l" transform="matrix(0.994, -0.113, 0.113, 0.994, 332.733, 203.671)" fill="#fff" stroke="#231f20" stroke-linejoin="round" stroke-width="25" font-size="199" font-family="Duckie"><tspan x="0" y="0">l</tspan></text>
    <text id="e" transform="translate(379.509 197.238) rotate(-4.63)" fill="#fff" stroke="#231f20" stroke-linejoin="round" stroke-width="25" font-size="198" font-family="Duckie"><tspan x="0" y="0">e</tspan></text>
    <text id="v" transform="matrix(0.999, -0.042, 0.042, 0.999, 436.692, 189.464)" fill="#fff" stroke="#231f20" stroke-linejoin="round" stroke-width="25" font-size="195" font-family="Duckie"><tspan x="0" y="0">v</tspan></text>
    <text id="e-2" data-name="e" transform="translate(505.572 189.55) rotate(0.15)" fill="#fff" stroke="#231f20" stroke-linejoin="round" stroke-width="25" font-size="198" font-family="Duckie"><tspan x="0" y="0">e</tspan></text>
    <text id="r" transform="translate(564.126 190.535) rotate(2)" fill="#fff" stroke="#231f20" stroke-linejoin="round" stroke-width="25" font-size="199" font-family="Duckie"><tspan x="0" y="0">r</tspan></text>
    <text id="i" transform="translate(624.156 190.758) rotate(3.85)" fill="#fff" stroke="#231f20" stroke-linejoin="round" stroke-width="25" font-size="197" font-family="Duckie"><tspan x="0" y="0">i</tspan></text>
    <text id="n" transform="translate(667.329 196.198) rotate(6.17)" fill="#fff" stroke="#231f20" stroke-linejoin="round" stroke-width="25" font-size="200" font-family="Duckie"><tspan x="0" y="0">n</tspan></text>
    <text id="g" transform="translate(751.879 205.388) rotate(9.01)" fill="#fff" stroke="#231f20" stroke-linejoin="round" stroke-width="25" font-size="200" font-family="Duckie"><tspan x="0" y="0">g</tspan></text>
    <text id="e-3" data-name="e" transform="matrix(0.98, 0.197, -0.197, 0.98, 826.439, 215.341)" fill="#fff" stroke="#231f20" stroke-linejoin="round" stroke-width="25" font-size="198" font-family="Duckie"><tspan x="0" y="0">e</tspan></text>
    <text id="n-2" data-name="n" transform="translate(882.304 228.23) rotate(13.9)" fill="#fff" stroke="#231f20" stroke-linejoin="round" stroke-width="25" font-size="200" font-family="Duckie"><tspan x="0" y="0">n</tspan></text>
    <path id="Path_146" data-name="Path 146" d="M554.824,104.862H537l-1.944,17.5S533.439,133.051,537,133.7s20.088.648,21.384,0S554.824,104.862,554.824,104.862Z" transform="translate(254.261 54.653)" fill="#211f1f"/>
    <g data-type="innerShadowGroup">
      <path id="Union_3-2" data-name="Union 3" d="M674.869,199.834c-18.766-2.975-32.274-14.837-29.33-33.405,1.754-11.062,9.234-17.368,18.677-20.731a22.149,22.149,0,0,1-2.467-3.235c-6.378,6.761-14.591,11.355-24.883,10.243-13.124-1.418-20.749-10.894-19.46-22.824.967-8.948,3.542-12.29,3.8-14.676a1.216,1.216,0,0,0-1.042-1.521c-2.386-.258-8.083,7.776-9.781,23.485-.838,7.755-6.524,11.968-16.268,10.915-11.1-1.2-16.812-8.251-18.7-18.465-6.081,7.294-14.177,12.515-24.706,11.807-9.742-.656-15.489-6.021-18.239-14.2-5.965,8.037-14.184,14.048-25.271,13.661-13.523-.473-23.134-10.366-22.593-25.879a56.1,56.1,0,0,1,2.043-12.872,29.4,29.4,0,0,1-4.184.053,12.885,12.885,0,0,1-1.554-.148c-5.74,17.92-20.921,36.433-44.86,36.371-19.8-.052-29.862-13.938-29.819-30.174.053-20.2,15.548-39.757,37.526-39.7,13.464.035,22.157,7.186,22.129,17.68-.031,11.682-11.134,17.593-21.232,17.567a21.867,21.867,0,0,1-7.323-1.208c1.776,2.579,5.336,3.776,9.1,3.786,12.43.033,18.725-8.161,23.3-15.275a20.633,20.633,0,0,1-.612-5.891c.278-7.955,4.527-15.573,10.1-15.378,1.79.063,5.963,5.983,15.852,7.921,3.548-4.655,7.863-8.486,15.023-8.236,9.347.326,10.929,6.355,10.8,9.935-.153,4.375-2.288,8.482-2.426,12.46-.112,3.182,1.2,5.617,4.578,5.735,4.7.165,8.485-3.977,11.164-7.086,4.012-10.478,11.2-17,21.416-16.318,6.879.464,9.825,3.623,9.548,7.751-.172,2.555-1.643,6.8-1.881,10.338-.277,4.127,1.137,6.592,4.477,6.817,5.307.357,9.608-4.882,12.375-7.854a13.253,13.253,0,0,1,4.422-3.491,19.2,19.2,0,0,1,17.187-6.674c6.96.752,9.868,5.493,9.266,11.06a35.5,35.5,0,0,1-2.38,9c7.394-8.857,19.513-18.61,33.829-17.063,8.75.946,13.274,7.47,12.479,14.827-.3,2.784-1.22,5.7-1.435,7.69-.279,2.585.607,3.686,2.4,3.88,4.476.484,8.4-3.006,11.282-5.862a34.959,34.959,0,0,1,31.919-11.734,27.272,27.272,0,0,1,15.716,8.161,16.331,16.331,0,0,1,10.046-2.052c7.308,1.159,10.071,5.445,9.351,9.988-.408,2.568-2.125,5.737-2.689,9.293-2.6,16.4-2.766,32.771-4.676,44.821-3.358,21.17-19.338,37.431-43.122,37.429A56.673,56.673,0,0,1,674.869,199.834Zm3.258-37.147a4.964,4.964,0,0,0,4.384,5.555c5.927.94,12.312-2.3,14.066-13.362C686.065,156.047,679.066,156.76,678.127,162.687Zm13-44.919c-.563,3.555.713,7,5.059,7.687,5.333.845,8.819-3.259,9.6-8.2.282-1.778.274-6.842-5.256-7.718a7.182,7.182,0,0,0-1.126-.09C695.026,109.449,691.787,113.577,691.122,117.768Zm-254.358-24.1a9.69,9.69,0,0,0,2.376.2c4.752.012,7.334-3.149,7.34-5.129,0-.99-.788-1.784-2.173-1.787H444.3C442.316,86.955,437.962,89.319,436.764,93.668ZM173.207,155.514c-8.069,13.185-20.309,23.752-35.853,27.206-22.146,4.922-38.9-9.906-43.515-30.692-2.634-11.85-2.656-25.708-.994-39.327-2.525.562-4.9.886-7.231,1.4l-.885,20.786c-1.165,22.275-6.776,52.061-40.772,59.617C24.337,198.868,5.213,188.033.939,168.8c-7.383-33.219,21.8-56.012,63.306-70.13,7.122-32.161,20.374-73.431,52.621-80.6,13.6-3.022,23.548.474,25.535,9.41.562,2.525-.69,4.231-1.036,8.18a285,285,0,0,0,.066,47.076c12.562-.346,18.563,2.805,19.427,6.691,1.036,4.662-4.1,18.239-12.109,21.65,2.871,4.662,6.432,6.928,11.289,5.849,5.4-1.2,7.982-4.667,10.249-9.007a10.97,10.97,0,0,1,.954-1.9l.3-.621a14.81,14.81,0,0,1,2.655-4.073c-1.018-41.528,3.978-90.649,31.437-94.708,11.948-1.767,21.4,6.644,24.207,25.644,2.9,19.587-1.385,48.841-18.642,70.207,11.7-2.535,16.364-7.14,19.37-9.084C229.677,56.509,236.64,3.24,265.118,0c12.061-1.374,21.469,7.368,23.654,26.547,2.275,19.969-8.572,54.853-24.712,74.919,1.282,2.458,3.242,3.837,5.812,3.543,4.972-.567,8.372-4.351,10.842-7.859,5.064-12.693,16.255-22.786,31.227-24,13.42-1.087,22.679,5.315,23.526,15.774.943,11.644-9.629,18.46-19.695,19.274a21.858,21.858,0,0,1-7.4-.592c1.984,2.422,5.632,3.318,9.382,3.014,10.4-.842,16.007-7.1,19.886-13.5.818-13.45,7.473-25.094,20.352-25.63,7.988-.332,13.41,3.346,13.6,7.827a8.271,8.271,0,0,1-.3,2.159,42.95,42.95,0,0,0-1.949,14.134c.162,3.9,1.071,6.981,3.8,6.868,3.312-.138,5.846-4.927,5.578-11.356-.284-6.819-3.482-8.638-3.644-12.535-.194-4.675,6.057-9.229,13.266-9.529,10.131-.421,15.5,6.577,15.982,18.267.656,15.782-6.97,48.3-37.363,49.565-10.7.445-18.6-5.488-23.5-13.924-7.1,10.743-18.141,19.225-33.374,20.459-11.438.926-20-3.051-25.438-9.708-4.8,7.86-11.912,14.028-22.386,15.222-15.445,1.759-26.2-9.786-29.906-33.071a26.9,26.9,0,0,1-9.183,6.657c6.613,6.828,12.536,21.164,14.187,32.329,2.722,18.412-3.682,37.372-25.619,40.616a33.284,33.284,0,0,1-4.877.369C188.446,195.833,176.822,179.316,173.207,155.514Zm30.219-16.264c.985,6.66,3.153,9.141,5.5,8.794,1.763-.261,3.04-2.452,2.49-6.173-1.13-7.638-5.1-12.856-8.868-15.3A86.549,86.549,0,0,0,203.426,139.251ZM37.135,141.8c.389,1.749,1.965,4.253,6.432,3.259,8.548-1.9,12.886-12.649,15.627-23.246C39.768,129.8,36.4,138.5,37.135,141.8ZM314.019,91.453c-1.974.16-6.124,2.88-6.956,7.317a9.608,9.608,0,0,0,2.384.006c4.737-.384,7.047-3.749,6.887-5.723a1.832,1.832,0,0,0-2.039-1.612Q314.161,91.442,314.019,91.453ZM90.189,83.326a67.357,67.357,0,0,0-1.813,8.353c2.137-.475,4.23-1.144,6.561-1.662l2.138-.475a253.779,253.779,0,0,1,9.258-30.8C98.758,60.424,93.88,69.662,90.189,83.326ZM208.2,49.677c-4.309.637-5.46,17.22-4.762,34.13,4.689-8.9,9.075-22.558,8-29.805-.379-2.569-1.346-4.349-2.915-4.349A2.225,2.225,0,0,0,208.2,49.677Zm56.816-8.41c-1.384.158-2.938,2.337-3.956,7.461-1.737,7.609-2.012,19.256-1.434,29.606,4.94-9.376,9.357-25.1,8.5-32.614-.3-2.632-1.234-4.467-2.854-4.467A2.275,2.275,0,0,0,265.013,41.267ZM849.837,194.212c-12.814-3.171-19.1-13.585-16.214-25.234,2.162-8.736,5.162-11.7,5.739-14.032a1.216,1.216,0,0,0-.829-1.647c-2.329-.577-9.055,6.618-12.85,21.956-1.874,7.572-8.075,10.982-17.588,8.627-11.487-2.842-16.093-11.385-16.089-22.7-9.582,7.61-21.966,12.061-36.177,9.209-19.413-3.9-26.586-19.473-23.391-35.392,3.975-19.8,22.974-35.98,44.523-31.655,13.2,2.65,20.339,11.353,18.274,21.641-2.3,11.453-14.339,15.1-24.24,13.109a21.876,21.876,0,0,1-6.949-2.606c1.241,2.874,4.5,4.74,8.19,5.48,15.142,3.04,23.459-8.215,29.794-14.618a11.919,11.919,0,0,1,3.806-2.67c5.15-4.892,11.507-6.939,18.839-5.125,6.795,1.681,9.039,6.77,7.693,12.206a35.5,35.5,0,0,1-3.569,8.594c8.519-7.781,21.839-15.817,35.817-12.358,8.543,2.114,12.149,9.188,10.372,16.371-.673,2.718-1.976,5.486-2.456,7.428-.625,2.524.105,3.735,1.853,4.167,5.242,1.3,10.47-3.178,13.763-5.659,2.517-1.85,4.746-3.359,7.657-2.638s3.791,3,3.119,5.717c-1.331,5.376-17.047,42.655-42.516,42.65A27.3,27.3,0,0,1,849.837,194.212Zm-84.618-67.581a9.663,9.663,0,0,0,2.291.662c4.658.935,7.806-1.665,8.2-3.606.2-.97-.426-1.9-1.785-2.175a3.489,3.489,0,0,0-.68-.06A9.811,9.811,0,0,0,765.219,126.631ZM560.766,71.22c-8.255-.555-15.184-6.155-14.6-14.8s8.789-16.191,19.993-15.437c8.059.542,14.607,5.919,13.986,15.157-.507,7.531-8.082,15.129-18.047,15.129Q561.438,71.265,560.766,71.22Z" transform="translate(101.59 53.596)" fill="#fff"/>
      <g transform="matrix(1, 0, 0, 1, 33.53, -22.39)" filter="url(#Union_3)">
        <path id="Union_3-3" data-name="Union 3" d="M674.869,199.834c-18.766-2.975-32.274-14.837-29.33-33.405,1.754-11.062,9.234-17.368,18.677-20.731a22.149,22.149,0,0,1-2.467-3.235c-6.378,6.761-14.591,11.355-24.883,10.243-13.124-1.418-20.749-10.894-19.46-22.824.967-8.948,3.542-12.29,3.8-14.676a1.216,1.216,0,0,0-1.042-1.521c-2.386-.258-8.083,7.776-9.781,23.485-.838,7.755-6.524,11.968-16.268,10.915-11.1-1.2-16.812-8.251-18.7-18.465-6.081,7.294-14.177,12.515-24.706,11.807-9.742-.656-15.489-6.021-18.239-14.2-5.965,8.037-14.184,14.048-25.271,13.661-13.523-.473-23.134-10.366-22.593-25.879a56.1,56.1,0,0,1,2.043-12.872,29.4,29.4,0,0,1-4.184.053,12.885,12.885,0,0,1-1.554-.148c-5.74,17.92-20.921,36.433-44.86,36.371-19.8-.052-29.862-13.938-29.819-30.174.053-20.2,15.548-39.757,37.526-39.7,13.464.035,22.157,7.186,22.129,17.68-.031,11.682-11.134,17.593-21.232,17.567a21.867,21.867,0,0,1-7.323-1.208c1.776,2.579,5.336,3.776,9.1,3.786,12.43.033,18.725-8.161,23.3-15.275a20.633,20.633,0,0,1-.612-5.891c.278-7.955,4.527-15.573,10.1-15.378,1.79.063,5.963,5.983,15.852,7.921,3.548-4.655,7.863-8.486,15.023-8.236,9.347.326,10.929,6.355,10.8,9.935-.153,4.375-2.288,8.482-2.426,12.46-.112,3.182,1.2,5.617,4.578,5.735,4.7.165,8.485-3.977,11.164-7.086,4.012-10.478,11.2-17,21.416-16.318,6.879.464,9.825,3.623,9.548,7.751-.172,2.555-1.643,6.8-1.881,10.338-.277,4.127,1.137,6.592,4.477,6.817,5.307.357,9.608-4.882,12.375-7.854a13.253,13.253,0,0,1,4.422-3.491,19.2,19.2,0,0,1,17.187-6.674c6.96.752,9.868,5.493,9.266,11.06a35.5,35.5,0,0,1-2.38,9c7.394-8.857,19.513-18.61,33.829-17.063,8.75.946,13.274,7.47,12.479,14.827-.3,2.784-1.22,5.7-1.435,7.69-.279,2.585.607,3.686,2.4,3.88,4.476.484,8.4-3.006,11.282-5.862a34.959,34.959,0,0,1,31.919-11.734,27.272,27.272,0,0,1,15.716,8.161,16.331,16.331,0,0,1,10.046-2.052c7.308,1.159,10.071,5.445,9.351,9.988-.408,2.568-2.125,5.737-2.689,9.293-2.6,16.4-2.766,32.771-4.676,44.821-3.358,21.17-19.338,37.431-43.122,37.429A56.673,56.673,0,0,1,674.869,199.834Zm3.258-37.147a4.964,4.964,0,0,0,4.384,5.555c5.927.94,12.312-2.3,14.066-13.362C686.065,156.047,679.066,156.76,678.127,162.687Zm13-44.919c-.563,3.555.713,7,5.059,7.687,5.333.845,8.819-3.259,9.6-8.2.282-1.778.274-6.842-5.256-7.718a7.182,7.182,0,0,0-1.126-.09C695.026,109.449,691.787,113.577,691.122,117.768Zm-254.358-24.1a9.69,9.69,0,0,0,2.376.2c4.752.012,7.334-3.149,7.34-5.129,0-.99-.788-1.784-2.173-1.787H444.3C442.316,86.955,437.962,89.319,436.764,93.668ZM173.207,155.514c-8.069,13.185-20.309,23.752-35.853,27.206-22.146,4.922-38.9-9.906-43.515-30.692-2.634-11.85-2.656-25.708-.994-39.327-2.525.562-4.9.886-7.231,1.4l-.885,20.786c-1.165,22.275-6.776,52.061-40.772,59.617C24.337,198.868,5.213,188.033.939,168.8c-7.383-33.219,21.8-56.012,63.306-70.13,7.122-32.161,20.374-73.431,52.621-80.6,13.6-3.022,23.548.474,25.535,9.41.562,2.525-.69,4.231-1.036,8.18a285,285,0,0,0,.066,47.076c12.562-.346,18.563,2.805,19.427,6.691,1.036,4.662-4.1,18.239-12.109,21.65,2.871,4.662,6.432,6.928,11.289,5.849,5.4-1.2,7.982-4.667,10.249-9.007a10.97,10.97,0,0,1,.954-1.9l.3-.621a14.81,14.81,0,0,1,2.655-4.073c-1.018-41.528,3.978-90.649,31.437-94.708,11.948-1.767,21.4,6.644,24.207,25.644,2.9,19.587-1.385,48.841-18.642,70.207,11.7-2.535,16.364-7.14,19.37-9.084C229.677,56.509,236.64,3.24,265.118,0c12.061-1.374,21.469,7.368,23.654,26.547,2.275,19.969-8.572,54.853-24.712,74.919,1.282,2.458,3.242,3.837,5.812,3.543,4.972-.567,8.372-4.351,10.842-7.859,5.064-12.693,16.255-22.786,31.227-24,13.42-1.087,22.679,5.315,23.526,15.774.943,11.644-9.629,18.46-19.695,19.274a21.858,21.858,0,0,1-7.4-.592c1.984,2.422,5.632,3.318,9.382,3.014,10.4-.842,16.007-7.1,19.886-13.5.818-13.45,7.473-25.094,20.352-25.63,7.988-.332,13.41,3.346,13.6,7.827a8.271,8.271,0,0,1-.3,2.159,42.95,42.95,0,0,0-1.949,14.134c.162,3.9,1.071,6.981,3.8,6.868,3.312-.138,5.846-4.927,5.578-11.356-.284-6.819-3.482-8.638-3.644-12.535-.194-4.675,6.057-9.229,13.266-9.529,10.131-.421,15.5,6.577,15.982,18.267.656,15.782-6.97,48.3-37.363,49.565-10.7.445-18.6-5.488-23.5-13.924-7.1,10.743-18.141,19.225-33.374,20.459-11.438.926-20-3.051-25.438-9.708-4.8,7.86-11.912,14.028-22.386,15.222-15.445,1.759-26.2-9.786-29.906-33.071a26.9,26.9,0,0,1-9.183,6.657c6.613,6.828,12.536,21.164,14.187,32.329,2.722,18.412-3.682,37.372-25.619,40.616a33.284,33.284,0,0,1-4.877.369C188.446,195.833,176.822,179.316,173.207,155.514Zm30.219-16.264c.985,6.66,3.153,9.141,5.5,8.794,1.763-.261,3.04-2.452,2.49-6.173-1.13-7.638-5.1-12.856-8.868-15.3A86.549,86.549,0,0,0,203.426,139.251ZM37.135,141.8c.389,1.749,1.965,4.253,6.432,3.259,8.548-1.9,12.886-12.649,15.627-23.246C39.768,129.8,36.4,138.5,37.135,141.8ZM314.019,91.453c-1.974.16-6.124,2.88-6.956,7.317a9.608,9.608,0,0,0,2.384.006c4.737-.384,7.047-3.749,6.887-5.723a1.832,1.832,0,0,0-2.039-1.612Q314.161,91.442,314.019,91.453ZM90.189,83.326a67.357,67.357,0,0,0-1.813,8.353c2.137-.475,4.23-1.144,6.561-1.662l2.138-.475a253.779,253.779,0,0,1,9.258-30.8C98.758,60.424,93.88,69.662,90.189,83.326ZM208.2,49.677c-4.309.637-5.46,17.22-4.762,34.13,4.689-8.9,9.075-22.558,8-29.805-.379-2.569-1.346-4.349-2.915-4.349A2.225,2.225,0,0,0,208.2,49.677Zm56.816-8.41c-1.384.158-2.938,2.337-3.956,7.461-1.737,7.609-2.012,19.256-1.434,29.606,4.94-9.376,9.357-25.1,8.5-32.614-.3-2.632-1.234-4.467-2.854-4.467A2.275,2.275,0,0,0,265.013,41.267ZM849.837,194.212c-12.814-3.171-19.1-13.585-16.214-25.234,2.162-8.736,5.162-11.7,5.739-14.032a1.216,1.216,0,0,0-.829-1.647c-2.329-.577-9.055,6.618-12.85,21.956-1.874,7.572-8.075,10.982-17.588,8.627-11.487-2.842-16.093-11.385-16.089-22.7-9.582,7.61-21.966,12.061-36.177,9.209-19.413-3.9-26.586-19.473-23.391-35.392,3.975-19.8,22.974-35.98,44.523-31.655,13.2,2.65,20.339,11.353,18.274,21.641-2.3,11.453-14.339,15.1-24.24,13.109a21.876,21.876,0,0,1-6.949-2.606c1.241,2.874,4.5,4.74,8.19,5.48,15.142,3.04,23.459-8.215,29.794-14.618a11.919,11.919,0,0,1,3.806-2.67c5.15-4.892,11.507-6.939,18.839-5.125,6.795,1.681,9.039,6.77,7.693,12.206a35.5,35.5,0,0,1-3.569,8.594c8.519-7.781,21.839-15.817,35.817-12.358,8.543,2.114,12.149,9.188,10.372,16.371-.673,2.718-1.976,5.486-2.456,7.428-.625,2.524.105,3.735,1.853,4.167,5.242,1.3,10.47-3.178,13.763-5.659,2.517-1.85,4.746-3.359,7.657-2.638s3.791,3,3.119,5.717c-1.331,5.376-17.047,42.655-42.516,42.65A27.3,27.3,0,0,1,849.837,194.212Zm-84.618-67.581a9.663,9.663,0,0,0,2.291.662c4.658.935,7.806-1.665,8.2-3.606.2-.97-.426-1.9-1.785-2.175a3.489,3.489,0,0,0-.68-.06A9.811,9.811,0,0,0,765.219,126.631ZM560.766,71.22c-8.255-.555-15.184-6.155-14.6-14.8s8.789-16.191,19.993-15.437c8.059.542,14.607,5.919,13.986,15.157-.507,7.531-8.082,15.129-18.047,15.129Q561.438,71.265,560.766,71.22Z" transform="translate(68.06 75.98)" fill="#fff"/>
      </g>
    </g>
  </g>
</svg>
