<?xml version="1.0" encoding="UTF-8"?>
<svg id="Layer_2" data-name="Layer 2" xmlns="http://www.w3.org/2000/svg" viewBox="0 0 712.11 170.11">
  <defs>
    <style>
      .cls-1 {
        stroke: #231f20;
        stroke-miterlimit: 10;
        stroke-width: 25px;
      }

      .cls-1, .cls-2 {
        fill: #fff;
      }

      .cls-2 {
        stroke-width: 0px;
      }
    </style>
  </defs>
  <g id="Layer_3" data-name="Layer 3">
    <g>
      <path class="cls-1" d="M76.85,142.52c-4.57,6.17-11.32,11.16-21.26,13.77-16.73,4.38-28.09-2.59-31.12-14.16-3.26-12.45,4.97-23.61,18.3-27.1,3.9-1.02,8.12-1.32,12.41-1.37-.31-16.58-1.18-37.32,17.56-42.23,6.79-1.78,13.8-.66,14.56,2.23.49,1.89-1.15,1.78-1.57,8.88-.23,2.21-.11,4.73-.08,7.41,5.71-2.84,8.57-8.83,7.19-14.11-2.24-8.55-12.42-10.46-22.98-7.69-13.58,3.56-21.88,14.47-19.21,24.65.79,3.02,2.38,3.95,2.67,5.08.96,3.65-2.77,11.48-13.46,14.28-12.58,3.29-23.08-2.96-26.21-14.9-6.19-23.64,13.41-41.68,39.19-48.43,31.19-8.17,54.45,2.13,58.73,18.48,2.17,8.3-.24,14.98-5.32,20.21,16.15.07,25.83,8.82,28.99,20.9,3.69,14.09-3.24,31.22-24.75,36.86-13.58,3.56-24.52,1.32-33.64-2.74ZM54.19,129.38c-2.41-.98-4.78-1.3-6.79-.77-2.64.69-3.85,2.75-3.39,4.52.43,1.63,2.18,3.19,5.07,2.43,2.77-.72,4.35-2.89,5.1-6.17ZM85.85,101.46c.05,4.82.02,9.81-.4,14.89,2.55,0,4.92-.21,7.05-.77,5.41-1.42,8.26-5.39,6.98-10.29-1.09-4.15-5.62-6.05-10.9-4.67-.88.23-1.85.62-2.73.85Z"/>
      <path class="cls-1" d="M160.96,83.08c.36-.2.74-.27,1.25-.36,7.8-1.43,12.94,5.68,14.14,12.21,2.96,16.11-6.15,28.36-20.73,31.04-12.79,2.35-21.33-5.33-23.26-15.81-2.4-13.04,5.87-26.32,19.04-28.74,4.09-.75,7.29.11,9.56,1.68ZM159.39,95.4c-.21-1.15-1.31-4.25-4.89-3.6-3.2.59-4.53,4.14-3.99,7.08.42,2.3,1.95,4.14,4.76,3.62,3.45-.63,4.7-3.9,4.11-7.1Z"/>
      <path class="cls-1" d="M184.77,95.91c-.88.26-1.78.39-2.68.52-4.89.71-9.62-2.93-10.57-9.36-.75-5.15,1.09-10.54,4.69-11.06,1.16-.17,4.53,3.15,11.12,3.24,1.74-3.41,4.06-6.37,8.69-7.05,6.05-.88,7.77,2.81,8.11,5.12.41,2.83-.48,5.72-.1,8.29.3,2.06,1.43,3.47,3.61,3.15,3.47-.51,5.52-4.49,6.89-6.79,1.06-1.73,2.03-3.19,3.96-3.47s3.02.87,3.28,2.67c.56,3.86.17,34.4-19.25,37.24-8.75,1.28-16.08-3.95-17.55-13.99-.4-2.7-.46-5.84-.19-8.51Z"/>
      <path class="cls-1" d="M224.09,90.72c-.89.23-1.79.33-2.7.42-4.91.53-9.51-3.28-10.21-9.75-.56-5.17,1.48-10.49,5.1-10.88,1.16-.13,4.41,3.31,10.99,3.65,1.86-3.34,4.29-6.22,8.95-6.72,6.07-.66,7.66,3.09,7.91,5.42.31,2.84-.69,5.7-.41,8.28.22,2.07,1.3,3.52,3.49,3.28,3.49-.38,5.68-4.28,7.14-6.53,1.12-1.69,2.15-3.11,4.09-3.32,1.94-.21,2.98.98,3.18,2.79.42,3.88-1.11,34.38-20.62,36.5-8.79.95-15.92-4.55-17.02-14.63-.29-2.71-.24-5.86.12-8.51Z"/>
      <path class="cls-1" d="M292.98,75.37c1.16-2.04,2.64-3.19,4.33-3.31,1.3-.09,2.56,1.12,2.7,3.07.97,13.49-8.2,34.74-28.56,36.19-12.97.93-20.23-7.67-20.99-18.31-.95-13.23,8.25-26.79,22.64-27.82,8.82-.63,14.86,3.63,15.35,10.5.55,7.65-6.43,12.06-13.05,12.54-1.69.12-3.39-.02-4.85-.43,1.29,1.6,3.68,2.21,6.14,2.04,10.11-.73,13.41-9.3,16.3-14.46ZM269.73,81.99c.53.09,1.05.06,1.56.02,3.11-.22,4.65-2.42,4.56-3.72-.05-.65-.6-1.13-1.51-1.06-1.3.09-4.04,1.85-4.61,4.76Z"/>
      <path class="cls-1" d="M289.99,83.44c-.87-22.34,5.08-70.06,27.17-70.92,7.92-.31,13.63,5.84,14.12,18.44.51,13.12-8.25,35.32-19.75,47.6.72,1.66,1.92,2.66,3.61,2.59,4.42-.17,7.25-4.31,9.1-6.73,1.24-1.61,2.23-2.95,4.57-3.04,1.43-.06,2.64,1.07,2.72,3.02.15,3.9-3.22,34.21-23.49,35-10.78.42-17.38-8.69-18.05-25.97ZM309.76,63.29c3.67-5.87,7.32-15.9,7.13-20.83-.07-1.82-.64-3.1-1.81-3.05-.91.04-2.03,1.38-2.94,4.67-1.5,4.87-2.25,12.45-2.38,19.22Z"/>
      <path class="cls-1" d="M398.26,109.17c-6.23,4.48-14.19,7.17-24.44,6.61-17.26-.94-25.96-11.05-25.31-22.99.7-12.85,11.95-20.96,25.71-20.21,4.02.22,8.13,1.22,12.23,2.49,4.77-15.88,10.29-35.89,29.63-34.84,7.01.38,13.34,3.59,13.18,6.58-.11,1.95-1.64,1.34-4.21,7.97-.89,2.03-1.55,4.47-2.34,7.03,6.3-.96,10.86-5.79,11.16-11.24.48-8.83-8.63-13.75-19.53-14.34-14.02-.76-25.25,7.09-25.82,17.6-.17,3.12,1.06,4.48.99,5.65-.21,3.76-6.15,10.08-17.18,9.48-12.98-.71-21.07-9.87-20.4-22.2,1.33-24.4,25.5-35.59,52.11-34.14,32.19,1.75,51.19,18.67,50.27,35.54-.47,8.57-4.81,14.19-11.24,17.61,15.35,5,21.9,16.29,21.22,28.76-.79,14.54-12.63,28.74-34.83,27.53-14.02-.76-23.75-6.24-31.2-12.89ZM380.7,89.73c-1.99-1.67-4.15-2.7-6.23-2.81-2.73-.15-4.5,1.45-4.6,3.26-.09,1.69,1.1,3.71,4.09,3.87,2.86.16,5.02-1.42,6.75-4.32ZM419.38,72.83c-1.42,4.61-2.98,9.34-4.93,14.05,2.43.78,4.75,1.3,6.95,1.42,5.58.3,9.52-2.61,9.79-7.67.23-4.28-3.5-7.48-8.95-7.78-.91-.05-1.95.02-2.86-.03Z"/>
      <path class="cls-1" d="M508.3,92.63c2.96.39,5.75-1.86,8.49-4.64,1.37-1.39,2.83-2.51,4.76-2.25,1.93.26,2.66,1.67,2.42,3.47-.51,3.87-9.59,32.69-26.6,30.43-4.77-.63-7.88-2.88-9.44-6.89-3.66,3.84-8.39,4.92-13.42,4.25-10.31-1.37-14.92-11.03-13.73-20.05,2.09-15.72,15.45-24.44,27.17-22.88,3.87.51,7.32,2.15,9.66,4.3,1.68-.83,3.83-1.2,5.51-.97,2.71.36,4.43,2.16,4.12,4.48-.22,1.68-1.29,3.76-1.6,6.08-.36,2.71.46,4.39,2.66,4.68ZM492.69,89.77c.15-1.16.07-4.45-3.54-4.93-3.22-.43-5.58,2.54-5.98,5.5-.31,2.32.58,4.54,3.41,4.91,3.48.46,5.68-2.26,6.11-5.48Z"/>
      <path class="cls-1" d="M546.6,85.06c.66-.01,1.2-.05,1.84.06,7.42,1.33,10.43,8.87,9.67,15.33,5.08-1.07,6.21-6.68,10.44-5.92,1.28.23,2.2,1.71,1.86,3.63-1.44,8.06-8.18,13.99-16.48,14.61-5.11,9.38-14.09,14.51-25.22,12.52-12.8-2.29-18.85-14.21-15.64-32.12,3.48-19.45,20.77-65.09,42.52-61.19,7.81,1.4,12.03,8.76,9.81,21.17-1.74,9.73-9.52,22.2-18.79,31.9ZM532.78,96.59c-.22,4.19.76,6.08,2.55,6.4,1.15.21,2.12-.02,3-.52-.72-2.64-.72-5.54-.24-8.23.09-.51.21-1.15.43-1.64-1.98,1.49-3.82,2.88-5.73,3.99ZM536.75,79.6c4.97-4.92,11.28-13.56,12.12-18.3.32-1.79.04-3.16-1.11-3.37-.9-.16-2.28.91-3.87,3.93-1.97,3.61-4.85,10.88-7.14,17.74Z"/>
      <path class="cls-1" d="M593.55,95.06c.66.02,1.2,0,1.83.15,7.36,1.65,10.03,9.32,8.98,15.75,5.12-.85,6.5-6.4,10.69-5.46,1.27.29,2.12,1.81,1.7,3.71-1.8,7.99-8.79,13.61-17.11,13.87-5.52,9.15-14.71,13.88-25.75,11.4-12.68-2.85-18.21-15.02-14.21-32.78,4.34-19.28,23.62-64.11,45.18-59.26,7.74,1.74,11.64,9.28,8.87,21.58-2.17,9.64-10.49,21.76-20.17,31.04ZM579.24,105.97c-.41,4.17.49,6.11,2.27,6.51,1.14.26,2.12.08,3.02-.39-.6-2.67-.48-5.57.12-8.23.11-.51.26-1.14.5-1.62-2.05,1.4-3.94,2.71-5.9,3.74ZM583.95,89.17c5.19-4.7,11.86-13.05,12.92-17.75.4-1.78.18-3.16-.96-3.42-.89-.2-2.31.81-4.04,3.75-2.12,3.52-5.33,10.66-7.91,17.41Z"/>
      <path class="cls-1" d="M647.45,117.79c1.76-1.55,3.54-2.15,5.17-1.71,1.26.34,2.05,1.89,1.55,3.78-3.49,13.06-19.09,30.15-38.81,24.88-12.56-3.36-16.62-13.86-13.86-24.16,3.42-12.81,16.54-22.63,30.49-18.9,8.54,2.28,12.86,8.28,11.08,14.94-1.98,7.41-10.02,9.3-16.43,7.59-1.63-.44-3.2-1.12-4.45-2,.69,1.94,2.75,3.29,5.14,3.93,9.8,2.62,15.71-4.41,20.13-8.35ZM623.32,116.45c.47.26.97.39,1.47.53,3.01.81,5.18-.77,5.52-2.02.17-.63-.2-1.26-1.08-1.5-1.26-.34-4.42.43-5.91,2.99Z"/>
      <path class="cls-1" d="M641.99,124.44c6.47-21.4,27.67-64.56,48.83-58.17,7.59,2.3,10.97,9.97,7.32,22.04-3.8,12.57-19.33,30.69-34.2,38.55.13,1.81.95,3.14,2.57,3.63,4.23,1.28,8.26-1.71,10.8-3.39,1.7-1.12,3.07-2.06,5.31-1.38,1.37.41,2.15,1.87,1.58,3.74-1.13,3.73-14.21,31.29-33.63,25.42-10.33-3.12-13.59-13.89-8.59-30.44ZM667.26,111.84c5.39-4.35,12.11-12.64,13.54-17.37.53-1.74.41-3.14-.71-3.48-.87-.26-2.37.64-4.3,3.45-3.01,4.12-6.19,11.03-8.52,17.39Z"/>
    </g>
    <g>
      <path class="cls-2" d="M76.85,142.52c-4.57,6.17-11.32,11.16-21.26,13.77-16.73,4.38-28.09-2.59-31.12-14.16-3.26-12.45,4.97-23.61,18.3-27.1,3.9-1.02,8.12-1.32,12.41-1.37-.31-16.58-1.18-37.32,17.56-42.23,6.79-1.78,13.8-.66,14.56,2.23.49,1.89-1.15,1.78-1.57,8.88-.23,2.21-.11,4.73-.08,7.41,5.71-2.84,8.57-8.83,7.19-14.11-2.24-8.55-12.42-10.46-22.98-7.69-13.58,3.56-21.88,14.47-19.21,24.65.79,3.02,2.38,3.95,2.67,5.08.96,3.65-2.77,11.48-13.46,14.28-12.58,3.29-23.08-2.96-26.21-14.9-6.19-23.64,13.41-41.68,39.19-48.43,31.19-8.17,54.45,2.13,58.73,18.48,2.17,8.3-.24,14.98-5.32,20.21,16.15.07,25.83,8.82,28.99,20.9,3.69,14.09-3.24,31.22-24.75,36.86-13.58,3.56-24.52,1.32-33.64-2.74ZM54.19,129.38c-2.41-.98-4.78-1.3-6.79-.77-2.64.69-3.85,2.75-3.39,4.52.43,1.63,2.18,3.19,5.07,2.43,2.77-.72,4.35-2.89,5.1-6.17ZM85.85,101.46c.05,4.82.02,9.81-.4,14.89,2.55,0,4.92-.21,7.05-.77,5.41-1.42,8.26-5.39,6.98-10.29-1.09-4.15-5.62-6.05-10.9-4.67-.88.23-1.85.62-2.73.85Z"/>
      <path class="cls-2" d="M160.96,83.08c.36-.2.74-.27,1.25-.36,7.8-1.43,12.94,5.68,14.14,12.21,2.96,16.11-6.15,28.36-20.73,31.04-12.79,2.35-21.33-5.33-23.26-15.81-2.4-13.04,5.87-26.32,19.04-28.74,4.09-.75,7.29.11,9.56,1.68ZM159.39,95.4c-.21-1.15-1.31-4.25-4.89-3.6-3.2.59-4.53,4.14-3.99,7.08.42,2.3,1.95,4.14,4.76,3.62,3.45-.63,4.7-3.9,4.11-7.1Z"/>
      <path class="cls-2" d="M184.77,95.91c-.88.26-1.78.39-2.68.52-4.89.71-9.62-2.93-10.57-9.36-.75-5.15,1.09-10.54,4.69-11.06,1.16-.17,4.53,3.15,11.12,3.24,1.74-3.41,4.06-6.37,8.69-7.05,6.05-.88,7.77,2.81,8.11,5.12.41,2.83-.48,5.72-.1,8.29.3,2.06,1.43,3.47,3.61,3.15,3.47-.51,5.52-4.49,6.89-6.79,1.06-1.73,2.03-3.19,3.96-3.47s3.02.87,3.28,2.67c.56,3.86.17,34.4-19.25,37.24-8.75,1.28-16.08-3.95-17.55-13.99-.4-2.7-.46-5.84-.19-8.51Z"/>
      <path class="cls-2" d="M224.09,90.72c-.89.23-1.79.33-2.7.42-4.91.53-9.51-3.28-10.21-9.75-.56-5.17,1.48-10.49,5.1-10.88,1.16-.13,4.41,3.31,10.99,3.65,1.86-3.34,4.29-6.22,8.95-6.72,6.07-.66,7.66,3.09,7.91,5.42.31,2.84-.69,5.7-.41,8.28.22,2.07,1.3,3.52,3.49,3.28,3.49-.38,5.68-4.28,7.14-6.53,1.12-1.69,2.15-3.11,4.09-3.32,1.94-.21,2.98.98,3.18,2.79.42,3.88-1.11,34.38-20.62,36.5-8.79.95-15.92-4.55-17.02-14.63-.29-2.71-.24-5.86.12-8.51Z"/>
      <path class="cls-2" d="M292.98,75.37c1.16-2.04,2.64-3.19,4.33-3.31,1.3-.09,2.56,1.12,2.7,3.07.97,13.49-8.2,34.74-28.56,36.19-12.97.93-20.23-7.67-20.99-18.31-.95-13.23,8.25-26.79,22.64-27.82,8.82-.63,14.86,3.63,15.35,10.5.55,7.65-6.43,12.06-13.05,12.54-1.69.12-3.39-.02-4.85-.43,1.29,1.6,3.68,2.21,6.14,2.04,10.11-.73,13.41-9.3,16.3-14.46ZM269.73,81.99c.53.09,1.05.06,1.56.02,3.11-.22,4.65-2.42,4.56-3.72-.05-.65-.6-1.13-1.51-1.06-1.3.09-4.04,1.85-4.61,4.76Z"/>
      <path class="cls-2" d="M289.99,83.44c-.87-22.34,5.08-70.06,27.17-70.92,7.92-.31,13.63,5.84,14.12,18.44.51,13.12-8.25,35.32-19.75,47.6.72,1.66,1.92,2.66,3.61,2.59,4.42-.17,7.25-4.31,9.1-6.73,1.24-1.61,2.23-2.95,4.57-3.04,1.43-.06,2.64,1.07,2.72,3.02.15,3.9-3.22,34.21-23.49,35-10.78.42-17.38-8.69-18.05-25.97ZM309.76,63.29c3.67-5.87,7.32-15.9,7.13-20.83-.07-1.82-.64-3.1-1.81-3.05-.91.04-2.03,1.38-2.94,4.67-1.5,4.87-2.25,12.45-2.38,19.22Z"/>
      <path class="cls-2" d="M398.26,109.17c-6.23,4.48-14.19,7.17-24.44,6.61-17.26-.94-25.96-11.05-25.31-22.99.7-12.85,11.95-20.96,25.71-20.21,4.02.22,8.13,1.22,12.23,2.49,4.77-15.88,10.29-35.89,29.63-34.84,7.01.38,13.34,3.59,13.18,6.58-.11,1.95-1.64,1.34-4.21,7.97-.89,2.03-1.55,4.47-2.34,7.03,6.3-.96,10.86-5.79,11.16-11.24.48-8.83-8.63-13.75-19.53-14.34-14.02-.76-25.25,7.09-25.82,17.6-.17,3.12,1.06,4.48.99,5.65-.21,3.76-6.15,10.08-17.18,9.48-12.98-.71-21.07-9.87-20.4-22.2,1.33-24.4,25.5-35.59,52.11-34.14,32.19,1.75,51.19,18.67,50.27,35.54-.47,8.57-4.81,14.19-11.24,17.61,15.35,5,21.9,16.29,21.22,28.76-.79,14.54-12.63,28.74-34.83,27.53-14.02-.76-23.75-6.24-31.2-12.89ZM380.7,89.73c-1.99-1.67-4.15-2.7-6.23-2.81-2.73-.15-4.5,1.45-4.6,3.26-.09,1.69,1.1,3.71,4.09,3.87,2.86.16,5.02-1.42,6.75-4.32ZM419.38,72.83c-1.42,4.61-2.98,9.34-4.93,14.05,2.43.78,4.75,1.3,6.95,1.42,5.58.3,9.52-2.61,9.79-7.67.23-4.28-3.5-7.48-8.95-7.78-.91-.05-1.95.02-2.86-.03Z"/>
      <path class="cls-2" d="M508.3,92.63c2.96.39,5.75-1.86,8.49-4.64,1.37-1.39,2.83-2.51,4.76-2.25,1.93.26,2.66,1.67,2.42,3.47-.51,3.87-9.59,32.69-26.6,30.43-4.77-.63-7.88-2.88-9.44-6.89-3.66,3.84-8.39,4.92-13.42,4.25-10.31-1.37-14.92-11.03-13.73-20.05,2.09-15.72,15.45-24.44,27.17-22.88,3.87.51,7.32,2.15,9.66,4.3,1.68-.83,3.83-1.2,5.51-.97,2.71.36,4.43,2.16,4.12,4.48-.22,1.68-1.29,3.76-1.6,6.08-.36,2.71.46,4.39,2.66,4.68ZM492.69,89.77c.15-1.16.07-4.45-3.54-4.93-3.22-.43-5.58,2.54-5.98,5.5-.31,2.32.58,4.54,3.41,4.91,3.48.46,5.68-2.26,6.11-5.48Z"/>
      <path class="cls-2" d="M546.6,85.06c.66-.01,1.2-.05,1.84.06,7.42,1.33,10.43,8.87,9.67,15.33,5.08-1.07,6.21-6.68,10.44-5.92,1.28.23,2.2,1.71,1.86,3.63-1.44,8.06-8.18,13.99-16.48,14.61-5.11,9.38-14.09,14.51-25.22,12.52-12.8-2.29-18.85-14.21-15.64-32.12,3.48-19.45,20.77-65.09,42.52-61.19,7.81,1.4,12.03,8.76,9.81,21.17-1.74,9.73-9.52,22.2-18.79,31.9ZM532.78,96.59c-.22,4.19.76,6.08,2.55,6.4,1.15.21,2.12-.02,3-.52-.72-2.64-.72-5.54-.24-8.23.09-.51.21-1.15.43-1.64-1.98,1.49-3.82,2.88-5.73,3.99ZM536.75,79.6c4.97-4.92,11.28-13.56,12.12-18.3.32-1.79.04-3.16-1.11-3.37-.9-.16-2.28.91-3.87,3.93-1.97,3.61-4.85,10.88-7.14,17.74Z"/>
      <path class="cls-2" d="M593.55,95.06c.66.02,1.2,0,1.83.15,7.36,1.65,10.03,9.32,8.98,15.75,5.12-.85,6.5-6.4,10.69-5.46,1.27.29,2.12,1.81,1.7,3.71-1.8,7.99-8.79,13.61-17.11,13.87-5.52,9.15-14.71,13.88-25.75,11.4-12.68-2.85-18.21-15.02-14.21-32.78,4.34-19.28,23.62-64.11,45.18-59.26,7.74,1.74,11.64,9.28,8.87,21.58-2.17,9.64-10.49,21.76-20.17,31.04ZM579.24,105.97c-.41,4.17.49,6.11,2.27,6.51,1.14.26,2.12.08,3.02-.39-.6-2.67-.48-5.57.12-8.23.11-.51.26-1.14.5-1.62-2.05,1.4-3.94,2.71-5.9,3.74ZM583.95,89.17c5.19-4.7,11.86-13.05,12.92-17.75.4-1.78.18-3.16-.96-3.42-.89-.2-2.31.81-4.04,3.75-2.12,3.52-5.33,10.66-7.91,17.41Z"/>
      <path class="cls-2" d="M647.45,117.79c1.76-1.55,3.54-2.15,5.17-1.71,1.26.34,2.05,1.89,1.55,3.78-3.49,13.06-19.09,30.15-38.81,24.88-12.56-3.36-16.62-13.86-13.86-24.16,3.42-12.81,16.54-22.63,30.49-18.9,8.54,2.28,12.86,8.28,11.08,14.94-1.98,7.41-10.02,9.3-16.43,7.59-1.63-.44-3.2-1.12-4.45-2,.69,1.94,2.75,3.29,5.14,3.93,9.8,2.62,15.71-4.41,20.13-8.35ZM623.32,116.45c.47.26.97.39,1.47.53,3.01.81,5.18-.77,5.52-2.02.17-.63-.2-1.26-1.08-1.5-1.26-.34-4.42.43-5.91,2.99Z"/>
      <path class="cls-2" d="M641.99,124.44c6.47-21.4,27.67-64.56,48.83-58.17,7.59,2.3,10.97,9.97,7.32,22.04-3.8,12.57-19.33,30.69-34.2,38.55.13,1.81.95,3.14,2.57,3.63,4.23,1.28,8.26-1.71,10.8-3.39,1.7-1.12,3.07-2.06,5.31-1.38,1.37.41,2.15,1.87,1.58,3.74-1.13,3.73-14.21,31.29-33.63,25.42-10.33-3.12-13.59-13.89-8.59-30.44ZM667.26,111.84c5.39-4.35,12.11-12.64,13.54-17.37.53-1.74.41-3.14-.71-3.48-.87-.26-2.37.64-4.3,3.45-3.01,4.12-6.19,11.03-8.52,17.39Z"/>
    </g>
  </g>
</svg>