<svg xmlns="http://www.w3.org/2000/svg" width="48.653" height="48.642" viewBox="0 0 48.653 48.642">
  <path id="Icon_awesome-instagram" data-name="Icon awesome-instagram" d="M24.326,14.087A12.471,12.471,0,1,0,36.8,26.559,12.451,12.451,0,0,0,24.326,14.087Zm0,20.579a8.108,8.108,0,1,1,8.108-8.108A8.123,8.123,0,0,1,24.326,34.666Zm15.89-21.089a2.909,2.909,0,1,1-2.909-2.909A2.9,2.9,0,0,1,40.217,13.577Zm8.26,2.952c-.185-3.9-1.075-7.348-3.929-10.192S38.252,2.6,34.355,2.409c-4.016-.228-16.053-.228-20.069,0C10.4,2.593,6.949,3.483,4.095,6.327S.361,12.622.166,16.519c-.228,4.016-.228,16.053,0,20.069.185,3.9,1.075,7.348,3.929,10.192s6.3,3.734,10.192,3.929c4.016.228,16.053.228,20.069,0,3.9-.185,7.348-1.075,10.192-3.929s3.734-6.3,3.929-10.192c.228-4.016.228-16.042,0-20.058ZM43.288,40.9a8.209,8.209,0,0,1-4.624,4.624c-3.2,1.27-10.8.977-14.338.977s-11.147.282-14.338-.977A8.209,8.209,0,0,1,5.365,40.9c-1.27-3.2-.977-10.8-.977-14.338s-.282-11.147.977-14.338A8.209,8.209,0,0,1,9.988,7.6c3.2-1.27,10.8-.977,14.338-.977s11.147-.282,14.338.977a8.209,8.209,0,0,1,4.624,4.624c1.27,3.2.977,10.8.977,14.338S44.558,37.706,43.288,40.9Z" transform="translate(0.005 -2.238)" fill="#fffbef"/>
</svg>
