<svg xmlns="http://www.w3.org/2000/svg" width="48.654" height="48.654" viewBox="0 0 48.654 48.654">
  <path id="Icon_awesome-linkedin" data-name="Icon awesome-linkedin" d="M45.179,2.25H3.464A3.49,3.49,0,0,0,0,5.758V47.4A3.49,3.49,0,0,0,3.464,50.9H45.179A3.5,3.5,0,0,0,48.654,47.4V5.758A3.5,3.5,0,0,0,45.179,2.25ZM14.7,43.954H7.494V20.734h7.222V43.954ZM11.1,17.563a4.181,4.181,0,1,1,4.181-4.181A4.183,4.183,0,0,1,11.1,17.563ZM41.736,43.954H34.525V32.659c0-2.693-.054-6.158-3.747-6.158-3.758,0-4.333,2.932-4.333,5.962v11.49H19.234V20.734h6.918v3.171h.1a7.6,7.6,0,0,1,6.831-3.747c7.3,0,8.656,4.811,8.656,11.067Z" transform="translate(0 -2.25)" fill="#fffbef"/>
</svg>
