<svg xmlns="http://www.w3.org/2000/svg" xmlns:xlink="http://www.w3.org/1999/xlink" width="648.115" height="201.803" viewBox="0 0 648.115 201.803">
  <defs>
    <filter id="Union_5">
      <feOffset input="SourceAlpha"/>
      <feGaussianBlur stdDeviation="3" result="blur"/>
      <feFlood flood-opacity="0.161" result="color"/>
      <feComposite operator="out" in="SourceGraphic" in2="blur"/>
      <feComposite operator="in" in="color"/>
      <feComposite operator="in" in2="SourceGraphic"/>
    </filter>
  </defs>
  <g id="Group_1160" data-name="Group 1160" transform="translate(7770.878 14666.273)">
    <path id="Union_6" data-name="Union 6" d="M.722,110.2C-5.942,61.3,24.461,7.564,76.9.418c32.46-4.423,53.947,11.723,58.711,32.692,8.947,8.106,15.32,23.769,17.163,37.294a121.739,121.739,0,0,1,.755,26.526C156,86.458,162.5,78.383,173.387,77.607,181.934,77,187.86,80.765,188.2,85.56a8.871,8.871,0,0,1-.253,2.323,46.025,46.025,0,0,0-1.64,15.2c.3,4.169,1.37,7.445,4.288,7.237,3.543-.253,6.106-5.464,5.614-12.343-.52-7.3-4-9.144-4.3-13.313-.356-5,6.2-10.081,13.91-10.631,10.84-.773,16.811,6.554,17.7,19.062,1.2,16.886-5.932,51.968-38.453,54.287-19.8,1.413-31.239-17.887-32.562-36.44-.119-1.666-.158-3.324-.116-4.961-5.887,34.97-28.813,63.983-70.687,69.689a82.875,82.875,0,0,1-11.2.775C33.468,176.446,6.168,150.169.722,110.2ZM82.463,35.053C68.314,36.981,56.678,63.576,60.337,90.418c2.608,19.143,12.472,27.76,24.125,26.173,14.773-2.013,25.462-20,22.8-44.223-11.434.075-16.474-5.809-17.1-10.387-.51-3.745,3.821-7.727,2.318-18.754-.6-4.411-4-8.259-8.769-8.259A9.235,9.235,0,0,0,82.463,35.053Zm500.469,130c-9.05-1.458-17.643-6.221-22.486-13.535-6.435,5.834-14.419,9.514-24.1,8.376-13.831-1.625-21.784-11.695-20.307-24.268,1.108-9.43,3.857-12.931,4.152-15.446a1.283,1.283,0,0,0-1.085-1.615c-2.515-.3-8.6,8.125-10.547,24.68-.96,8.173-7,12.562-17.267,11.356C474.1,152.582,469.308,137.36,471.6,117.87,474.107,96.5,483.868,82.133,500,84.029c7.335.862,10.355,5.89,9.666,11.758a37.382,37.382,0,0,1-2.6,9.467c7.888-9.271,20.768-19.443,35.856-17.671,9.221,1.084,13.93,8.01,13.019,15.764-.345,2.933-1.343,6-1.589,8.1-.32,2.724.6,3.9,2.49,4.118,5.658.664,10.539-4.712,13.657-7.744,2.077-1.971,3.958-3.643,6.476-3.807a21.635,21.635,0,0,1,.262-2.568c1.481-9.2,10.4-15.1,22.048-13.223,7.766,1.251,13.279,7.381,12.587,11.672-.493,3.066-4.581,2.408-5.108,5.677-.3,1.84.594,2.822,5.176,6.915,7.524,6.663,12.4,15.416,10.527,27.065-2.42,15.024-12.731,26.206-31.157,26.206A52.783,52.783,0,0,1,582.933,165.053Zm-1.8-43.483c-.2,1.227-.942,1.945-1.272,3.989-.4,2.452,1.557,4.654,4.214,5.081,2.452.4,3.7-.87,4-2.71.647-4.018-3.889-7.188-7.36-12.071-.27.917-.577,1.905-.921,2.949A3.169,3.169,0,0,1,581.131,121.57ZM423.515,146.7c-20.851-1.436-31.1-16.807-29.928-33.9,1.465-21.267,19.632-38.661,41.108-37.182,6.672.459,11.309,3.082,14.222,6.426a6.436,6.436,0,0,1,2.1-.065c12.719.876,17.889,14.011,17.157,24.645-1.722,25-19.085,40.2-41.246,40.2Q425.239,146.823,423.515,146.7Zm2.836-44.218c-.259,3.753,1.388,7.219,5.975,7.535,5.63.388,8.879-4.207,9.238-9.419.13-1.877-.346-7.147-6.184-7.549-.178-.012-.353-.018-.527-.018C429.934,93.035,426.669,97.855,426.351,102.487Zm-93.332,42.483c-14.348-.073-24.846-10.254-24.763-26.712a59.477,59.477,0,0,1,1.757-13.706,31.214,31.214,0,0,1-4.432.189,13.644,13.644,0,0,1-1.774-.124c-5.468,19.157-20.866,39.227-46.172,40.036-20.99.671-32.163-13.68-32.713-30.892-.684-21.409,15.024-42.711,38.322-43.456,14.272-.456,23.749,6.8,24.1,17.929.4,12.384-11.157,19.057-21.862,19.4a23.183,23.183,0,0,1-7.806-1.012c1.975,2.669,5.794,3.807,9.782,3.679,13.241-.423,19.611-9.422,24.2-17.157a21.978,21.978,0,0,1-.768-5.991c.043-8.44,4.3-16.647,10.212-16.618,1.9.01,6.51,6.152,17.051,7.893,3.613-5.045,8.065-9.243,15.661-9.2,9.917.05,11.784,6.389,11.765,10.187-.023,4.642-2.156,9.063-2.177,13.282-.017,3.377,1.447,5.916,5.034,5.934,5.7.029,9.947-5.857,12.707-9.22,2.122-2.521,4.032-4.621,7.2-4.605s4.631,2.133,4.616,5.087c-.031,6.321-8.056,55.087-39.79,55.081ZM264.5,89.8c-2.1.067-6.636,2.733-7.747,7.392a10.276,10.276,0,0,0,2.525.13c5.037-.161,7.658-3.606,7.591-5.706-.032-1.021-.853-1.817-2.25-1.817Z" transform="translate(-7758.173 -14653.419)" fill="#fff" stroke="#231f20" stroke-linejoin="round" stroke-width="25"/>
    <path id="Path_150" data-name="Path 150" d="M-7329.623-14565.354c1.134.262,18.781,1.719,18.781,1.719s3.561,12.3,1.78,14.895-9.876,15.381-12.952,16.676-15.056-.324-15.542-2.267-3.237-14.894,0-20.075A128.878,128.878,0,0,1-7329.623-14565.354Z" fill="#211f1f"/>
    <g data-type="innerShadowGroup">
      <path id="Union_5-2" data-name="Union 5" d="M.722,110.2C-5.942,61.3,24.461,7.564,76.9.418c32.46-4.423,53.947,11.723,58.711,32.692,8.947,8.106,15.32,23.769,17.163,37.294a121.739,121.739,0,0,1,.755,26.526C156,86.458,162.5,78.383,173.387,77.607,181.934,77,187.86,80.765,188.2,85.56a8.871,8.871,0,0,1-.253,2.323,46.025,46.025,0,0,0-1.64,15.2c.3,4.169,1.37,7.445,4.288,7.237,3.543-.253,6.106-5.464,5.614-12.343-.52-7.3-4-9.144-4.3-13.313-.356-5,6.2-10.081,13.91-10.631,10.84-.773,16.811,6.554,17.7,19.062,1.2,16.886-5.932,51.968-38.453,54.287-19.8,1.413-31.239-17.887-32.562-36.44-.119-1.666-.158-3.324-.116-4.961-5.887,34.97-28.813,63.983-70.687,69.689a82.875,82.875,0,0,1-11.2.775C33.468,176.446,6.168,150.169.722,110.2ZM82.463,35.053C68.314,36.981,56.678,63.576,60.337,90.418c2.608,19.143,12.472,27.76,24.125,26.173,14.773-2.013,25.462-20,22.8-44.223-11.434.075-16.474-5.809-17.1-10.387-.51-3.745,3.821-7.727,2.318-18.754-.6-4.411-4-8.259-8.769-8.259A9.235,9.235,0,0,0,82.463,35.053Zm500.469,130c-9.05-1.458-17.643-6.221-22.486-13.535-6.435,5.834-14.419,9.514-24.1,8.376-13.831-1.625-21.784-11.695-20.307-24.268,1.108-9.43,3.857-12.931,4.152-15.446a1.283,1.283,0,0,0-1.085-1.615c-2.515-.3-8.6,8.125-10.547,24.68-.96,8.173-7,12.562-17.267,11.356C474.1,152.582,469.308,137.36,471.6,117.87,474.107,96.5,483.868,82.133,500,84.029c7.335.862,10.355,5.89,9.666,11.758a37.382,37.382,0,0,1-2.6,9.467c7.888-9.271,20.768-19.443,35.856-17.671,9.221,1.084,13.93,8.01,13.019,15.764-.345,2.933-1.343,6-1.589,8.1-.32,2.724.6,3.9,2.49,4.118,5.658.664,10.539-4.712,13.657-7.744,2.077-1.971,3.958-3.643,6.476-3.807a21.635,21.635,0,0,1,.262-2.568c1.481-9.2,10.4-15.1,22.048-13.223,7.766,1.251,13.279,7.381,12.587,11.672-.493,3.066-4.581,2.408-5.108,5.677-.3,1.84.594,2.822,5.176,6.915,7.524,6.663,12.4,15.416,10.527,27.065-2.42,15.024-12.731,26.206-31.157,26.206A52.783,52.783,0,0,1,582.933,165.053Zm-1.8-43.483c-.2,1.227-.942,1.945-1.272,3.989-.4,2.452,1.557,4.654,4.214,5.081,2.452.4,3.7-.87,4-2.71.647-4.018-3.889-7.188-7.36-12.071-.27.917-.577,1.905-.921,2.949A3.169,3.169,0,0,1,581.131,121.57ZM423.515,146.7c-20.851-1.436-31.1-16.807-29.928-33.9,1.465-21.267,19.632-38.661,41.108-37.182,6.672.459,11.309,3.082,14.222,6.426a6.436,6.436,0,0,1,2.1-.065c12.719.876,17.889,14.011,17.157,24.645-1.722,25-19.085,40.2-41.246,40.2Q425.239,146.823,423.515,146.7Zm2.836-44.218c-.259,3.753,1.388,7.219,5.975,7.535,5.63.388,8.879-4.207,9.238-9.419.13-1.877-.346-7.147-6.184-7.549-.178-.012-.353-.018-.527-.018C429.934,93.035,426.669,97.855,426.351,102.487Zm-93.332,42.483c-14.348-.073-24.846-10.254-24.763-26.712a59.477,59.477,0,0,1,1.757-13.706,31.214,31.214,0,0,1-4.432.189,13.644,13.644,0,0,1-1.774-.124c-5.468,19.157-20.866,39.227-46.172,40.036-20.99.671-32.163-13.68-32.713-30.892-.684-21.409,15.024-42.711,38.322-43.456,14.272-.456,23.749,6.8,24.1,17.929.4,12.384-11.157,19.057-21.862,19.4a23.183,23.183,0,0,1-7.806-1.012c1.975,2.669,5.794,3.807,9.782,3.679,13.241-.423,19.611-9.422,24.2-17.157a21.978,21.978,0,0,1-.768-5.991c.043-8.44,4.3-16.647,10.212-16.618,1.9.01,6.51,6.152,17.051,7.893,3.613-5.045,8.065-9.243,15.661-9.2,9.917.05,11.784,6.389,11.765,10.187-.023,4.642-2.156,9.063-2.177,13.282-.017,3.377,1.447,5.916,5.034,5.934,5.7.029,9.947-5.857,12.707-9.22,2.122-2.521,4.032-4.621,7.2-4.605s4.631,2.133,4.616,5.087c-.031,6.321-8.056,55.087-39.79,55.081ZM264.5,89.8c-2.1.067-6.636,2.733-7.747,7.392a10.276,10.276,0,0,0,2.525.13c5.037-.161,7.658-3.606,7.591-5.706-.032-1.021-.853-1.817-2.25-1.817Z" transform="translate(-7758.173 -14653.419)" fill="#fff"/>
      <g transform="matrix(1, 0, 0, 1, -7770.88, -14666.27)" filter="url(#Union_5)">
        <path id="Union_5-3" data-name="Union 5" d="M.722,110.2C-5.942,61.3,24.461,7.564,76.9.418c32.46-4.423,53.947,11.723,58.711,32.692,8.947,8.106,15.32,23.769,17.163,37.294a121.739,121.739,0,0,1,.755,26.526C156,86.458,162.5,78.383,173.387,77.607,181.934,77,187.86,80.765,188.2,85.56a8.871,8.871,0,0,1-.253,2.323,46.025,46.025,0,0,0-1.64,15.2c.3,4.169,1.37,7.445,4.288,7.237,3.543-.253,6.106-5.464,5.614-12.343-.52-7.3-4-9.144-4.3-13.313-.356-5,6.2-10.081,13.91-10.631,10.84-.773,16.811,6.554,17.7,19.062,1.2,16.886-5.932,51.968-38.453,54.287-19.8,1.413-31.239-17.887-32.562-36.44-.119-1.666-.158-3.324-.116-4.961-5.887,34.97-28.813,63.983-70.687,69.689a82.875,82.875,0,0,1-11.2.775C33.468,176.446,6.168,150.169.722,110.2ZM82.463,35.053C68.314,36.981,56.678,63.576,60.337,90.418c2.608,19.143,12.472,27.76,24.125,26.173,14.773-2.013,25.462-20,22.8-44.223-11.434.075-16.474-5.809-17.1-10.387-.51-3.745,3.821-7.727,2.318-18.754-.6-4.411-4-8.259-8.769-8.259A9.235,9.235,0,0,0,82.463,35.053Zm500.469,130c-9.05-1.458-17.643-6.221-22.486-13.535-6.435,5.834-14.419,9.514-24.1,8.376-13.831-1.625-21.784-11.695-20.307-24.268,1.108-9.43,3.857-12.931,4.152-15.446a1.283,1.283,0,0,0-1.085-1.615c-2.515-.3-8.6,8.125-10.547,24.68-.96,8.173-7,12.562-17.267,11.356C474.1,152.582,469.308,137.36,471.6,117.87,474.107,96.5,483.868,82.133,500,84.029c7.335.862,10.355,5.89,9.666,11.758a37.382,37.382,0,0,1-2.6,9.467c7.888-9.271,20.768-19.443,35.856-17.671,9.221,1.084,13.93,8.01,13.019,15.764-.345,2.933-1.343,6-1.589,8.1-.32,2.724.6,3.9,2.49,4.118,5.658.664,10.539-4.712,13.657-7.744,2.077-1.971,3.958-3.643,6.476-3.807a21.635,21.635,0,0,1,.262-2.568c1.481-9.2,10.4-15.1,22.048-13.223,7.766,1.251,13.279,7.381,12.587,11.672-.493,3.066-4.581,2.408-5.108,5.677-.3,1.84.594,2.822,5.176,6.915,7.524,6.663,12.4,15.416,10.527,27.065-2.42,15.024-12.731,26.206-31.157,26.206A52.783,52.783,0,0,1,582.933,165.053Zm-1.8-43.483c-.2,1.227-.942,1.945-1.272,3.989-.4,2.452,1.557,4.654,4.214,5.081,2.452.4,3.7-.87,4-2.71.647-4.018-3.889-7.188-7.36-12.071-.27.917-.577,1.905-.921,2.949A3.169,3.169,0,0,1,581.131,121.57ZM423.515,146.7c-20.851-1.436-31.1-16.807-29.928-33.9,1.465-21.267,19.632-38.661,41.108-37.182,6.672.459,11.309,3.082,14.222,6.426a6.436,6.436,0,0,1,2.1-.065c12.719.876,17.889,14.011,17.157,24.645-1.722,25-19.085,40.2-41.246,40.2Q425.239,146.823,423.515,146.7Zm2.836-44.218c-.259,3.753,1.388,7.219,5.975,7.535,5.63.388,8.879-4.207,9.238-9.419.13-1.877-.346-7.147-6.184-7.549-.178-.012-.353-.018-.527-.018C429.934,93.035,426.669,97.855,426.351,102.487Zm-93.332,42.483c-14.348-.073-24.846-10.254-24.763-26.712a59.477,59.477,0,0,1,1.757-13.706,31.214,31.214,0,0,1-4.432.189,13.644,13.644,0,0,1-1.774-.124c-5.468,19.157-20.866,39.227-46.172,40.036-20.99.671-32.163-13.68-32.713-30.892-.684-21.409,15.024-42.711,38.322-43.456,14.272-.456,23.749,6.8,24.1,17.929.4,12.384-11.157,19.057-21.862,19.4a23.183,23.183,0,0,1-7.806-1.012c1.975,2.669,5.794,3.807,9.782,3.679,13.241-.423,19.611-9.422,24.2-17.157a21.978,21.978,0,0,1-.768-5.991c.043-8.44,4.3-16.647,10.212-16.618,1.9.01,6.51,6.152,17.051,7.893,3.613-5.045,8.065-9.243,15.661-9.2,9.917.05,11.784,6.389,11.765,10.187-.023,4.642-2.156,9.063-2.177,13.282-.017,3.377,1.447,5.916,5.034,5.934,5.7.029,9.947-5.857,12.707-9.22,2.122-2.521,4.032-4.621,7.2-4.605s4.631,2.133,4.616,5.087c-.031,6.321-8.056,55.087-39.79,55.081ZM264.5,89.8c-2.1.067-6.636,2.733-7.747,7.392a10.276,10.276,0,0,0,2.525.13c5.037-.161,7.658-3.606,7.591-5.706-.032-1.021-.853-1.817-2.25-1.817Z" transform="translate(12.7 12.85)" fill="#fff"/>
      </g>
    </g>
  </g>
</svg>
